{
    "asset" : {
        "generator" : "Khronos glTF Blender I/O v3.3.32",
        "version" : "2.0"
    },
    "scene" : 0,
    "scenes" : [
        {
            "name" : "Scene",
            "nodes" : [
                0,
                1,
                2,
                3,
                4,
                5,
                6
            ]
        }
    ],
    "nodes" : [
        {
            "mesh" : 0,
            "name" : "Plane",
            "rotation" : [
                0.7071068286895752,
                0,
                0,
                0.7071068286895752
            ],
            "scale" : [
                5.026343822479248,
                1,
                1
            ],
            "translation" : [
                0.011015139520168304,
                0.3154568374156952,
                0.02675764076411724
            ]
        },
        {
            "mesh" : 1,
            "name" : "Curve.003",
            "rotation" : [
                0.7071068286895752,
                0,
                0,
                0.7071068286895752
            ],
            "translation" : [
                0,
                -0.07554954290390015,
                0.03945857286453247
            ]
        },
        {
            "mesh" : 2,
            "name" : "Curve.006",
            "rotation" : [
                0.7071068286895752,
                0,
                0,
                0.7071068286895752
            ],
            "translation" : [
                -2.5400000595254824e-05,
                -0.07554954290390015,
                0.052412569522857666
            ]
        },
        {
            "mesh" : 3,
            "name" : "Curve.001",
            "rotation" : [
                0.7071068286895752,
                0,
                0,
                0.7071068286895752
            ],
            "translation" : [
                0,
                -0.07554954290390015,
                0.03945857286453247
            ]
        },
        {
            "mesh" : 4,
            "name" : "Curve.002",
            "rotation" : [
                0.7071068286895752,
                0,
                0,
                0.7071068286895752
            ],
            "translation" : [
                0,
                -0.07554954290390015,
                0.03348958492279053
            ]
        },
        {
            "mesh" : 5,
            "name" : "Curve.004",
            "rotation" : [
                0.7071068286895752,
                0,
                0,
                0.7071068286895752
            ],
            "translation" : [
                0,
                -0.07554954290390015,
                0.05218398571014404
            ]
        },
        {
            "mesh" : 6,
            "name" : "Curve.005",
            "rotation" : [
                0.7071068286895752,
                0,
                0,
                0.7071068286895752
            ],
            "translation" : [
                0,
                -0.07554954290390015,
                0.040093839168548584
            ]
        }
    ],
    "materials" : [
        {
            "doubleSided" : true,
            "name" : "base-acrylic",
            "pbrMetallicRoughness" : {
                "baseColorFactor" : [
                    0.008385742083191872,
                    0.008385742083191872,
                    0.008385742083191872,
                    1
                ],
                "metallicFactor" : 0,
                "roughnessFactor" : 0.10000000149011612
            }
        },
        {
            "doubleSided" : true,
            "name" : "Material.003",
            "pbrMetallicRoughness" : {
                "baseColorFactor" : [
                    0.054480209946632385,
                    0.05951118841767311,
                    0.06480326503515244,
                    1
                ],
                "metallicFactor" : 0,
                "roughnessFactor" : 0.10000000149011612
            }
        },
        {
            "doubleSided" : true,
            "name" : "Material.001",
            "pbrMetallicRoughness" : {
                "baseColorFactor" : [
                    1,
                    0.1441282331943512,
                    0,
                    1
                ],
                "metallicFactor" : 0,
                "roughnessFactor" : 0.20000000298023224
            }
        },
        {
            "doubleSided" : true,
            "name" : "Material.002",
            "pbrMetallicRoughness" : {
                "baseColorFactor" : [
                    1,
                    0.43965667486190796,
                    0.17464756965637207,
                    1
                ],
                "metallicFactor" : 0,
                "roughnessFactor" : 0.5
            }
        }
    ],
    "meshes" : [
        {
            "name" : "Plane",
            "primitives" : [
                {
                    "attributes" : {
                        "POSITION" : 0,
                        "NORMAL" : 1,
                        "TEXCOORD_0" : 2
                    },
                    "indices" : 3
                }
            ]
        },
        {
            "name" : "Curve.003",
            "primitives" : [
                {
                    "attributes" : {
                        "POSITION" : 4,
                        "NORMAL" : 5,
                        "TEXCOORD_0" : 6
                    },
                    "indices" : 7,
                    "material" : 0
                }
            ]
        },
        {
            "name" : "Curve.021",
            "primitives" : [
                {
                    "attributes" : {
                        "POSITION" : 8,
                        "NORMAL" : 9,
                        "TEXCOORD_0" : 10
                    },
                    "indices" : 11,
                    "material" : 1
                }
            ]
        },
        {
            "name" : "Curve.001",
            "primitives" : [
                {
                    "attributes" : {
                        "POSITION" : 12,
                        "NORMAL" : 13,
                        "TEXCOORD_0" : 14
                    },
                    "indices" : 15,
                    "material" : 0
                }
            ]
        },
        {
            "name" : "Curve.002",
            "primitives" : [
                {
                    "attributes" : {
                        "POSITION" : 16,
                        "NORMAL" : 17,
                        "TEXCOORD_0" : 18
                    },
                    "indices" : 19,
                    "material" : 0
                }
            ]
        },
        {
            "name" : "Curve.019",
            "primitives" : [
                {
                    "attributes" : {
                        "POSITION" : 20,
                        "NORMAL" : 21,
                        "TEXCOORD_0" : 22
                    },
                    "indices" : 23,
                    "material" : 2
                }
            ]
        },
        {
            "name" : "Curve.020",
            "primitives" : [
                {
                    "attributes" : {
                        "POSITION" : 24,
                        "NORMAL" : 25,
                        "TEXCOORD_0" : 26
                    },
                    "indices" : 27,
                    "material" : 3
                }
            ]
        }
    ],
    "accessors" : [
        {
            "bufferView" : 0,
            "componentType" : 5126,
            "count" : 24,
            "max" : [
                0.30480000376701355,
                0,
                0.30480000376701355
            ],
            "min" : [
                -0.30480000376701355,
                -0.029277928173542023,
                -0.30480000376701355
            ],
            "type" : "VEC3"
        },
        {
            "bufferView" : 1,
            "componentType" : 5126,
            "count" : 24,
            "type" : "VEC3"
        },
        {
            "bufferView" : 2,
            "componentType" : 5126,
            "count" : 24,
            "type" : "VEC2"
        },
        {
            "bufferView" : 3,
            "componentType" : 5123,
            "count" : 36,
            "type" : "SCALAR"
        },
        {
            "bufferView" : 4,
            "componentType" : 5126,
            "count" : 46929,
            "max" : [
                1.2971198558807373,
                0.01269999984651804,
                -0.28738850355148315
            ],
            "min" : [
                -0.8447930812835693,
                -0.01269999984651804,
                -0.5230273008346558
            ],
            "type" : "VEC3"
        },
        {
            "bufferView" : 5,
            "componentType" : 5126,
            "count" : 46929,
            "type" : "VEC3"
        },
        {
            "bufferView" : 6,
            "componentType" : 5126,
            "count" : 46929,
            "type" : "VEC2"
        },
        {
            "bufferView" : 7,
            "componentType" : 5123,
            "count" : 85764,
            "type" : "SCALAR"
        },
        {
            "bufferView" : 8,
            "componentType" : 5126,
            "count" : 9483,
            "max" : [
                1.2971198558807373,
                0,
                -0.28738850355148315
            ],
            "min" : [
                -0.8447930812835693,
                0,
                -0.5230273008346558
            ],
            "type" : "VEC3"
        },
        {
            "bufferView" : 9,
            "componentType" : 5126,
            "count" : 9483,
            "type" : "VEC3"
        },
        {
            "bufferView" : 10,
            "componentType" : 5126,
            "count" : 9483,
            "type" : "VEC2"
        },
        {
            "bufferView" : 11,
            "componentType" : 5123,
            "count" : 21399,
            "type" : "SCALAR"
        },
        {
            "bufferView" : 12,
            "componentType" : 5126,
            "count" : 5984,
            "max" : [
                -0.9466209411621094,
                0.01269999984651804,
                -0.20315246284008026
            ],
            "min" : [
                -1.2970352172851562,
                -0.01269999984651804,
                -0.6094925999641418
            ],
            "type" : "VEC3"
        },
        {
            "bufferView" : 13,
            "componentType" : 5126,
            "count" : 5984,
            "type" : "VEC3"
        },
        {
            "bufferView" : 14,
            "componentType" : 5126,
            "count" : 5984,
            "type" : "VEC2"
        },
        {
            "bufferView" : 15,
            "componentType" : 5123,
            "count" : 10752,
            "type" : "SCALAR"
        },
        {
            "bufferView" : 16,
            "componentType" : 5126,
            "count" : 11788,
            "max" : [
                -0.9466209411621094,
                0.00634999992325902,
                -0.29138657450675964
            ],
            "min" : [
                -1.2970633506774902,
                -0.00634999992325902,
                -0.5212422013282776
            ],
            "type" : "VEC3"
        },
        {
            "bufferView" : 17,
            "componentType" : 5126,
            "count" : 11788,
            "type" : "VEC3"
        },
        {
            "bufferView" : 18,
            "componentType" : 5126,
            "count" : 11788,
            "type" : "VEC2"
        },
        {
            "bufferView" : 19,
            "componentType" : 5123,
            "count" : 21504,
            "type" : "SCALAR"
        },
        {
            "bufferView" : 20,
            "componentType" : 5126,
            "count" : 1185,
            "max" : [
                -0.9466209411621094,
                0,
                -0.20315246284008026
            ],
            "min" : [
                -1.2970352172851562,
                0,
                -0.6094925999641418
            ],
            "type" : "VEC3"
        },
        {
            "bufferView" : 21,
            "componentType" : 5126,
            "count" : 1185,
            "type" : "VEC3"
        },
        {
            "bufferView" : 22,
            "componentType" : 5126,
            "count" : 1185,
            "type" : "VEC2"
        },
        {
            "bufferView" : 23,
            "componentType" : 5123,
            "count" : 2682,
            "type" : "SCALAR"
        },
        {
            "bufferView" : 24,
            "componentType" : 5126,
            "count" : 2260,
            "max" : [
                -0.9466209411621094,
                0,
                -0.29138657450675964
            ],
            "min" : [
                -1.2970633506774902,
                0,
                -0.5212422013282776
            ],
            "type" : "VEC3"
        },
        {
            "bufferView" : 25,
            "componentType" : 5126,
            "count" : 2260,
            "type" : "VEC3"
        },
        {
            "bufferView" : 26,
            "componentType" : 5126,
            "count" : 2260,
            "type" : "VEC2"
        },
        {
            "bufferView" : 27,
            "componentType" : 5123,
            "count" : 5370,
            "type" : "SCALAR"
        }
    ],
    "bufferViews" : [
        {
            "buffer" : 0,
            "byteLength" : 288,
            "byteOffset" : 0,
            "target" : 34962
        },
        {
            "buffer" : 0,
            "byteLength" : 288,
            "byteOffset" : 288,
            "target" : 34962
        },
        {
            "buffer" : 0,
            "byteLength" : 192,
            "byteOffset" : 576,
            "target" : 34962
        },
        {
            "buffer" : 0,
            "byteLength" : 72,
            "byteOffset" : 768,
            "target" : 34963
        },
        {
            "buffer" : 0,
            "byteLength" : 563148,
            "byteOffset" : 840,
            "target" : 34962
        },
        {
            "buffer" : 0,
            "byteLength" : 563148,
            "byteOffset" : 563988,
            "target" : 34962
        },
        {
            "buffer" : 0,
            "byteLength" : 375432,
            "byteOffset" : 1127136,
            "target" : 34962
        },
        {
            "buffer" : 0,
            "byteLength" : 171528,
            "byteOffset" : 1502568,
            "target" : 34963
        },
        {
            "buffer" : 0,
            "byteLength" : 113796,
            "byteOffset" : 1674096,
            "target" : 34962
        },
        {
            "buffer" : 0,
            "byteLength" : 113796,
            "byteOffset" : 1787892,
            "target" : 34962
        },
        {
            "buffer" : 0,
            "byteLength" : 75864,
            "byteOffset" : 1901688,
            "target" : 34962
        },
        {
            "buffer" : 0,
            "byteLength" : 42798,
            "byteOffset" : 1977552,
            "target" : 34963
        },
        {
            "buffer" : 0,
            "byteLength" : 71808,
            "byteOffset" : 2020352,
            "target" : 34962
        },
        {
            "buffer" : 0,
            "byteLength" : 71808,
            "byteOffset" : 2092160,
            "target" : 34962
        },
        {
            "buffer" : 0,
            "byteLength" : 47872,
            "byteOffset" : 2163968,
            "target" : 34962
        },
        {
            "buffer" : 0,
            "byteLength" : 21504,
            "byteOffset" : 2211840,
            "target" : 34963
        },
        {
            "buffer" : 0,
            "byteLength" : 141456,
            "byteOffset" : 2233344,
            "target" : 34962
        },
        {
            "buffer" : 0,
            "byteLength" : 141456,
            "byteOffset" : 2374800,
            "target" : 34962
        },
        {
            "buffer" : 0,
            "byteLength" : 94304,
            "byteOffset" : 2516256,
            "target" : 34962
        },
        {
            "buffer" : 0,
            "byteLength" : 43008,
            "byteOffset" : 2610560,
            "target" : 34963
        },
        {
            "buffer" : 0,
            "byteLength" : 14220,
            "byteOffset" : 2653568,
            "target" : 34962
        },
        {
            "buffer" : 0,
            "byteLength" : 14220,
            "byteOffset" : 2667788,
            "target" : 34962
        },
        {
            "buffer" : 0,
            "byteLength" : 9480,
            "byteOffset" : 2682008,
            "target" : 34962
        },
        {
            "buffer" : 0,
            "byteLength" : 5364,
            "byteOffset" : 2691488,
            "target" : 34963
        },
        {
            "buffer" : 0,
            "byteLength" : 27120,
            "byteOffset" : 2696852,
            "target" : 34962
        },
        {
            "buffer" : 0,
            "byteLength" : 27120,
            "byteOffset" : 2723972,
            "target" : 34962
        },
        {
            "buffer" : 0,
            "byteLength" : 18080,
            "byteOffset" : 2751092,
            "target" : 34962
        },
        {
            "buffer" : 0,
            "byteLength" : 10740,
            "byteOffset" : 2769172,
            "target" : 34963
        }
    ],
    "buffers" : [
        {
            "byteLength" : 2779912,
            "uri" : "data:application/octet-stream;base64,"
        }
    ]
}
